<svg xmlns="http://www.w3.org/2000/svg" xmlns:xlink="http://www.w3.org/1999/xlink" contentStyleType="text/css" height="190px" preserveAspectRatio="none" style="width:430px;height:190px;;" version="1.1" viewBox="0 0 430 190" width="430px" zoomAndPan="magnify"><defs></defs><g><g class="entity" id="entity_ESP32"><rect fill="#ADD8E6" height="49.0679" rx="2.5" ry="2.5" style="stroke:#181818;stroke-width:0.5;" width="79.9558" x="18.5" y="7"></rect><rect fill="#ADD8E6" height="10" style="stroke:#181818;stroke-width:0.5;" width="15" x="78.4558" y="12"></rect><rect fill="#ADD8E6" height="2" style="stroke:#181818;stroke-width:0.5;" width="4" x="76.4558" y="14"></rect><rect fill="#ADD8E6" height="2" style="stroke:#181818;stroke-width:0.5;" width="4" x="76.4558" y="18"></rect><text fill="#000000" font-family="sans-serif" font-size="14" lengthAdjust="spacing" textLength="39.9558" x="33.5" y="41.9659">ESP32</text></g><g class="entity" id="entity_USB al PC"><rect fill="#D3D3D3" height="49.0679" rx="2.5" ry="2.5" style="stroke:#181818;stroke-width:0.5;" width="103.0838" x="7" y="135"></rect><rect fill="#D3D3D3" height="10" style="stroke:#181818;stroke-width:0.5;" width="15" x="90.0838" y="140"></rect><rect fill="#D3D3D3" height="2" style="stroke:#181818;stroke-width:0.5;" width="4" x="88.0838" y="142"></rect><rect fill="#D3D3D3" height="2" style="stroke:#181818;stroke-width:0.5;" width="4" x="88.0838" y="146"></rect><text fill="#000000" font-family="sans-serif" font-size="14" lengthAdjust="spacing" textLength="63.0838" x="22" y="169.9659">USB al PC</text></g><g class="entity" id="entity_GMN5"><path d="M134,17.5 L134,27.5 L98.68,31.5 L134,35.5 L134,45.206 A0,0 0 0 0 134,45.206 L306.6711,45.206 A0,0 0 0 0 306.6711,45.206 L306.6711,27.5 L296.6711,17.5 L134,17.5 A0,0 0 0 0 134,17.5" fill="#FEFFDD" style="stroke:#181818;stroke-width:0.5;"></path><path d="M296.6711,17.5 L296.6711,27.5 L306.6711,27.5 L296.6711,17.5" fill="#FEFFDD" style="stroke:#181818;stroke-width:0.5;"></path><text fill="#000000" font-family="sans-serif" font-size="13" lengthAdjust="spacing" textLength="151.6711" x="140" y="36.397">LED integrado en GPIO 2</text></g><g class="entity" id="entity_GMN8"><path d="M145.5,137 L145.5,155.5 L110.14,159.5 L145.5,163.5 L145.5,182.412 A0,0 0 0 0 145.5,182.412 L423.5362,182.412 A0,0 0 0 0 423.5362,182.412 L423.5362,147 L413.5362,137 L145.5,137 A0,0 0 0 0 145.5,137" fill="#FEFFDD" style="stroke:#181818;stroke-width:0.5;"></path><path d="M413.5362,137 L413.5362,147 L423.5362,147 L413.5362,137" fill="#FEFFDD" style="stroke:#181818;stroke-width:0.5;"></path><text fill="#000000" font-family="sans-serif" font-size="13" lengthAdjust="spacing" textLength="257.0362" x="151.5" y="155.897">Conexión para programación y monitoreo</text><text fill="#000000" font-family="sans-serif" font-size="13" lengthAdjust="spacing" textLength="202.0332" x="151.5" y="173.603">vía Arduino IDE (115200 baudios)</text></g><g class="link" id="link_ESP32_USB al PC"><path d="M58.5,56.2 C58.5,78.73 58.5,106.42 58.5,128.91" fill="none" id="ESP32-to-USB al PC" style="stroke:#181818;stroke-width:1;"></path><polygon fill="#181818" points="58.5,134.91,62.5,125.91,58.5,129.91,54.5,125.91,58.5,134.91" style="stroke:#181818;stroke-width:1;"></polygon><text fill="#000000" font-family="sans-serif" font-size="13" lengthAdjust="spacing" textLength="206.1282" x="59.5" y="100.897">Conexión de alimentación y datos</text></g></g></svg>