<svg xmlns="http://www.w3.org/2000/svg" xmlns:xlink="http://www.w3.org/1999/xlink" contentStyleType="text/css" height="575px" preserveAspectRatio="none" style="width:843px;height:575px;;" version="1.1" viewBox="0 0 843 575" width="843px" zoomAndPan="magnify"><defs></defs><g><g><title>Usuario</title><rect fill="#000000" fill-opacity="0.00000" height="407.7662" width="8" x="29.6549" y="84.0679"></rect><line style="stroke:#181818;stroke-width:0.5;stroke-dasharray:5,5;" x1="33" x2="33" y1="84.0679" y2="491.8341"></line></g><g><title>ESP32 .AP.</title><rect fill="#000000" fill-opacity="0.00000" height="407.7662" width="8" x="314.5522" y="84.0679"></rect><line style="stroke:#181818;stroke-width:0.5;stroke-dasharray:5,5;" x1="317.8463" x2="317.8463" y1="84.0679" y2="491.8341"></line></g><g><title>ESP32 .STA.</title><rect fill="#000000" fill-opacity="0.00000" height="407.7662" width="8" x="553.8813" y="84.0679"></rect><line style="stroke:#181818;stroke-width:0.5;stroke-dasharray:5,5;" x1="557.6755" x2="557.6755" y1="84.0679" y2="491.8341"></line></g><g><title>Router WiFi</title><rect fill="#000000" fill-opacity="0.00000" height="407.7662" width="8" x="788.4395" y="84.0679"></rect><line style="stroke:#181818;stroke-width:0.5;stroke-dasharray:5,5;" x1="791.5837" x2="791.5837" y1="84.0679" y2="491.8341"></line></g><g class="participant participant-head"><text fill="#000000" font-family="sans-serif" font-size="14" lengthAdjust="spacing" textLength="51.3098" x="5" y="79.9659">Usuario</text><ellipse cx="33.6549" cy="13.5" fill="#E2E2F0" rx="8" ry="8" style="stroke:#181818;stroke-width:0.5;"></ellipse><path d="M33.6549,21.5 L33.6549,48.5 M20.6549,29.5 L46.6549,29.5 M33.6549,48.5 L20.6549,63.5 M33.6549,48.5 L46.6549,63.5" fill="none" style="stroke:#181818;stroke-width:0.5;"></path></g><g class="participant participant-tail"><text fill="#000000" font-family="sans-serif" font-size="14" lengthAdjust="spacing" textLength="51.3098" x="5" y="505.8">Usuario</text><ellipse cx="33.6549" cy="518.402" fill="#E2E2F0" rx="8" ry="8" style="stroke:#181818;stroke-width:0.5;"></ellipse><path d="M33.6549,526.402 L33.6549,553.402 M20.6549,534.402 L46.6549,534.402 M33.6549,553.402 L20.6549,568.402 M33.6549,553.402 L46.6549,568.402" fill="none" style="stroke:#181818;stroke-width:0.5;"></path></g><g class="participant participant-head"><rect fill="#E2E2F0" height="33.0679" rx="2.5" ry="2.5" style="stroke:#181818;stroke-width:0.5;" width="83.4117" x="276.8463" y="50"></rect><text fill="#000000" font-family="sans-serif" font-size="14" lengthAdjust="spacing" textLength="69.4117" x="283.8463" y="71.9659">ESP32 (AP)</text></g><g class="participant participant-tail"><rect fill="#E2E2F0" height="33.0679" rx="2.5" ry="2.5" style="stroke:#181818;stroke-width:0.5;" width="83.4117" x="276.8463" y="490.8341"></rect><text fill="#000000" font-family="sans-serif" font-size="14" lengthAdjust="spacing" textLength="69.4117" x="283.8463" y="512.8">ESP32 (AP)</text></g><g class="participant participant-head"><rect fill="#E2E2F0" height="33.0679" rx="2.5" ry="2.5" style="stroke:#181818;stroke-width:0.5;" width="90.4117" x="512.6755" y="50"></rect><text fill="#000000" font-family="sans-serif" font-size="14" lengthAdjust="spacing" textLength="76.4117" x="519.6755" y="71.9659">ESP32 (STA)</text></g><g class="participant participant-tail"><rect fill="#E2E2F0" height="33.0679" rx="2.5" ry="2.5" style="stroke:#181818;stroke-width:0.5;" width="90.4117" x="512.6755" y="490.8341"></rect><text fill="#000000" font-family="sans-serif" font-size="14" lengthAdjust="spacing" textLength="76.4117" x="519.6755" y="512.8">ESP32 (STA)</text></g><g class="participant participant-head"><rect fill="#E2E2F0" height="33.0679" rx="2.5" ry="2.5" style="stroke:#181818;stroke-width:0.5;" width="89.7117" x="747.5837" y="50"></rect><text fill="#000000" font-family="sans-serif" font-size="14" lengthAdjust="spacing" textLength="75.7117" x="754.5837" y="71.9659">Router WiFi</text></g><g class="participant participant-tail"><rect fill="#E2E2F0" height="33.0679" rx="2.5" ry="2.5" style="stroke:#181818;stroke-width:0.5;" width="89.7117" x="747.5837" y="490.8341"></rect><text fill="#000000" font-family="sans-serif" font-size="14" lengthAdjust="spacing" textLength="75.7117" x="754.5837" y="512.8">Router WiFi</text></g><g class="message"><polygon fill="#181818" points="306.5522,113.7739,316.5522,117.7739,306.5522,121.7739,310.5522,117.7739" style="stroke:#181818;stroke-width:1;"></polygon><line style="stroke:#181818;stroke-width:1;" x1="33.6549" x2="312.5522" y1="117.7739" y2="117.7739"></line><text fill="#000000" font-family="sans-serif" font-size="13" lengthAdjust="spacing" textLength="197.6522" x="40.6549" y="111.9649">Conectar a &#34;ESP32-Config&#34; (WiFi)</text></g><g class="message"><polygon fill="#181818" points="306.5522,145.4799,316.5522,149.4799,306.5522,153.4799,310.5522,149.4799" style="stroke:#181818;stroke-width:1;"></polygon><line style="stroke:#181818;stroke-width:1;" x1="33.6549" x2="312.5522" y1="149.4799" y2="149.4799"></line><text fill="#000000" font-family="sans-serif" font-size="13" lengthAdjust="spacing" textLength="140.6471" x="40.6549" y="143.6709">GET http://192.168.4.1/</text></g><g class="message"><polygon fill="#181818" points="44.6549,177.186,34.6549,181.186,44.6549,185.186,40.6549,181.186" style="stroke:#181818;stroke-width:1;"></polygon><line style="stroke:#181818;stroke-width:1;" x1="38.6549" x2="317.5522" y1="181.186" y2="181.186"></line><text fill="#000000" font-family="sans-serif" font-size="13" lengthAdjust="spacing" textLength="155.9612" x="50.6549" y="175.377">Mostrar formulario HTML</text></g><g class="message"><polygon fill="#181818" points="306.5522,208.892,316.5522,212.892,306.5522,216.892,310.5522,212.892" style="stroke:#181818;stroke-width:1;"></polygon><line style="stroke:#181818;stroke-width:1;" x1="33.6549" x2="312.5522" y1="212.892" y2="212.892"></line><text fill="#000000" font-family="sans-serif" font-size="13" lengthAdjust="spacing" textLength="260.8973" x="40.6549" y="207.083">POST http://192.168.4.1/config (SSID, Pass)</text></g><g class="message"><line style="stroke:#181818;stroke-width:1;" x1="318.5522" x2="360.5522" y1="244.598" y2="244.598"></line><line style="stroke:#181818;stroke-width:1;" x1="360.5522" x2="360.5522" y1="244.598" y2="257.598"></line><line style="stroke:#181818;stroke-width:1;" x1="319.5522" x2="360.5522" y1="257.598" y2="257.598"></line><polygon fill="#181818" points="329.5522,253.598,319.5522,257.598,329.5522,261.598,325.5522,257.598" style="stroke:#181818;stroke-width:1;"></polygon><text fill="#000000" font-family="sans-serif" font-size="13" lengthAdjust="spacing" textLength="225.3291" x="325.5522" y="238.789">Guardar credenciales en Preferences</text></g><g class="message"><line style="stroke:#181818;stroke-width:1;" x1="318.5522" x2="360.5522" y1="289.304" y2="289.304"></line><line style="stroke:#181818;stroke-width:1;" x1="360.5522" x2="360.5522" y1="289.304" y2="302.304"></line><line style="stroke:#181818;stroke-width:1;" x1="319.5522" x2="360.5522" y1="302.304" y2="302.304"></line><polygon fill="#181818" points="329.5522,298.304,319.5522,302.304,329.5522,306.304,325.5522,302.304" style="stroke:#181818;stroke-width:1;"></polygon><text fill="#000000" font-family="sans-serif" font-size="13" lengthAdjust="spacing" textLength="52.416" x="325.5522" y="283.495">Reiniciar</text></g><g class="message"><polygon fill="#181818" points="545.8813,330.01,555.8813,334.01,545.8813,338.01,549.8813,334.01" style="stroke:#181818;stroke-width:1;"></polygon><line style="stroke:#181818;stroke-width:1;" x1="318.5522" x2="551.8813" y1="334.01" y2="334.01"></line><text fill="#000000" font-family="sans-serif" font-size="13" lengthAdjust="spacing" textLength="103.3631" x="325.5522" y="328.201">Iniciar modo STA</text></g><g class="message"><polygon fill="#181818" points="780.4395,361.716,790.4395,365.716,780.4395,369.716,784.4395,365.716" style="stroke:#181818;stroke-width:1;"></polygon><line style="stroke:#181818;stroke-width:1;" x1="557.8813" x2="786.4395" y1="365.716" y2="365.716"></line><text fill="#000000" font-family="sans-serif" font-size="13" lengthAdjust="spacing" textLength="137.7611" x="564.8813" y="359.907">Intentar conexión WiFi</text></g><g class="message"><polygon fill="#181818" points="568.8813,393.4221,558.8813,397.4221,568.8813,401.4221,564.8813,397.4221" style="stroke:#181818;stroke-width:1;"></polygon><line style="stroke:#181818;stroke-width:1;" x1="562.8813" x2="791.4395" y1="397.4221" y2="397.4221"></line><text fill="#000000" font-family="sans-serif" font-size="13" lengthAdjust="spacing" textLength="104.5981" x="574.8813" y="391.6131">Conexión exitosa</text></g><g class="message"><line style="stroke:#181818;stroke-width:1;" x1="557.8813" x2="599.8813" y1="429.1281" y2="429.1281"></line><line style="stroke:#181818;stroke-width:1;" x1="599.8813" x2="599.8813" y1="429.1281" y2="442.1281"></line><line style="stroke:#181818;stroke-width:1;" x1="558.8813" x2="599.8813" y1="442.1281" y2="442.1281"></line><polygon fill="#181818" points="568.8813,438.1281,558.8813,442.1281,568.8813,446.1281,564.8813,442.1281" style="stroke:#181818;stroke-width:1;"></polygon><text fill="#000000" font-family="sans-serif" font-size="13" lengthAdjust="spacing" textLength="220.5582" x="564.8813" y="423.3191">Mostrar &#34;Conectado! IP: ...&#34; en Serial</text></g><g class="message"><polygon fill="#181818" points="44.6549,469.8341,34.6549,473.8341,44.6549,477.8341,40.6549,473.8341" style="stroke:#181818;stroke-width:1;"></polygon><line style="stroke:#181818;stroke-width:1;" x1="38.6549" x2="556.8813" y1="473.8341" y2="473.8341"></line><text fill="#000000" font-family="sans-serif" font-size="13" lengthAdjust="spacing" textLength="113.5161" x="50.6549" y="468.0251">LED encendido fijo</text></g></g></svg>